<svg xmlns="http://www.w3.org/2000/svg" viewBox="0 0 68 68"><defs><style>.cls-1{fill:#fff;}</style></defs><title>Asset 18</title><g id="Layer_2" data-name="Layer 2"><g id="Layer_1-2" data-name="Layer 1"><path class="cls-1" d="M51,51,42.9,38.93,68,34,42.9,29.06,51,17,38.93,25.1,34,0,29.06,25.1,17,17l8.1,12.06L0,34l25.1,4.93L17,51l12.06-8.1L34,68l4.93-25.1Zm-7.79-7.79-3.83-2.58.2-1.05,1.06-.2Zm0-18.42-2.58,3.83-1.05-.21-.2-1.05Zm-18.42,0,3.83,2.57-.21,1.05-1.05.21Zm0,18.42,2.57-3.83,1.05.2.21,1.05Zm12.71-4L34,57,30.5,39.17l-.28-1.4-1.4-.27L11,34l17.8-3.5,1.4-.28.28-1.4L34,11l3.5,17.8.27,1.4,1.4.28L57,34,39.17,37.5l-1.4.27Z"/><path class="cls-1" d="M34,29.75A4.25,4.25,0,1,0,38.25,34,4.25,4.25,0,0,0,34,29.75Zm0,6.37A2.13,2.13,0,1,1,36.12,34,2.13,2.13,0,0,1,34,36.12Z"/></g></g></svg>