<svg xmlns="http://www.w3.org/2000/svg" viewBox="0 0 160.41 160.41"><defs><style>.cls-1{fill:#fff;}</style></defs><title>Asset 20</title><g id="Layer_2" data-name="Layer 2"><g id="Layer_1-2" data-name="Layer 1"><path class="cls-1" d="M120.31,120.31,101.19,91.84,160.41,80.2,101.19,68.57,120.31,40.1,91.84,59.22,80.2,0,68.57,59.22,40.1,40.1,59.22,68.57,0,80.2,59.22,91.84,40.1,120.31l28.47-19.12L80.2,160.41l11.64-59.22Zm-18.38-18.38-9-6.07.49-2.48,2.48-.49Zm0-43.45-6.07,9L93.38,67l-.49-2.48Zm-43.45,0,9,6.07L67,67l-2.48.49Zm0,43.45,6.07-9,2.48.49.49,2.48Zm30-9.52-8.26,42L72,92.41l-.65-3.3L68,88.46,26,80.2,68,72l3.3-.65L72,68,80.2,26l8.26,42,.65,3.3,3.3.65,42,8.25-42,8.26-3.3.65Z"/><path class="cls-1" d="M72,15.61l1-5.22A70.19,70.19,0,0,0,10.39,73.05l5.22-1A65.2,65.2,0,0,1,72,15.61Z"/><path class="cls-1" d="M88.38,144.8l-1,5.22A70.19,70.19,0,0,0,150,87.36l-5.22,1A65.2,65.2,0,0,1,88.38,144.8Z"/><path class="cls-1" d="M15.61,88.38l-5.22-1A70.19,70.19,0,0,0,73.05,150l-1-5.22A65.2,65.2,0,0,1,15.61,88.38Z"/><path class="cls-1" d="M144.8,72l5.22,1A70.19,70.19,0,0,0,87.36,10.39l1,5.22A65.2,65.2,0,0,1,144.8,72Z"/><path class="cls-1" d="M80.2,70.18a10,10,0,1,0,10,10A10,10,0,0,0,80.2,70.18Zm0,15a5,5,0,1,1,5-5A5,5,0,0,1,80.2,85.22Z"/></g></g></svg>