<svg xmlns="http://www.w3.org/2000/svg" viewBox="0 0 134.42 134.42"><defs><style>.cls-1{fill:#928257;}</style></defs><title>Asset 8</title><g id="Layer_2" data-name="Layer 2"><g id="Layer_1-2" data-name="Layer 1"><path class="cls-1" d="M100.81,100.81,84.8,77l49.62-9.75L84.8,57.46l16-23.86L77,49.62,67.21,0,57.46,49.62,33.6,33.6l16,23.86L0,67.21,49.62,77l-16,23.85,23.86-16,9.75,49.62L77,84.8Zm-15.4-15.4-7.57-5.08.41-2.08,2.08-.41Zm0-36.4-5.08,7.57-2.08-.41-.41-2.08ZM49,49l7.57,5.08-.41,2.08-2.08.41Zm0,36.4,5.08-7.57,2.08.41.41,2.08Zm25.12-8-6.92,35.2-6.92-35.2-.54-2.77L57,74.13l-35.2-6.92L57,60.29l2.77-.54L60.29,57l6.92-35.2L74.13,57l.54,2.77,2.77.54,35.2,6.92-35.2,6.92-2.77.54Z"/><path class="cls-1" d="M60.36,13.08l.86-4.38A58.84,58.84,0,0,0,8.7,61.22l4.38-.86A54.65,54.65,0,0,1,60.36,13.08Z"/><path class="cls-1" d="M74.06,121.34l-.86,4.37A58.82,58.82,0,0,0,125.71,73.2l-4.37.86A54.67,54.67,0,0,1,74.06,121.34Z"/><path class="cls-1" d="M13.08,74.06,8.7,73.2a58.83,58.83,0,0,0,52.52,52.51l-.86-4.37A54.66,54.66,0,0,1,13.08,74.06Z"/><path class="cls-1" d="M121.34,60.36l4.37.86A58.83,58.83,0,0,0,73.2,8.7l.86,4.38A54.66,54.66,0,0,1,121.34,60.36Z"/><path class="cls-1" d="M67.21,58.81a8.4,8.4,0,1,0,8.4,8.4A8.4,8.4,0,0,0,67.21,58.81Zm0,12.6a4.2,4.2,0,1,1,4.2-4.2A4.2,4.2,0,0,1,67.21,71.41Z"/></g></g></svg>