<svg xmlns="http://www.w3.org/2000/svg" viewBox="0 0 585.81 115.92"><defs><style>.cls-1{fill:#fff;}</style></defs><title>Asset 19</title><g id="Layer_2" data-name="Layer 2"><g id="Layer_1-2" data-name="Layer 1"><path class="cls-1" d="M45.71,3.67H29.37V63.34H35.8v2.29H11.93V63.34h6.43V3.67H2v8.26H0V1.38H47.73V11.93h-2Z"/><path class="cls-1" d="M58.84,1.38h23V3.67h-6V32.59H96V3.67h-6V1.38H112.9V3.67H107V63.34h5.87v2.29H90.05V63.34h6V34.88H75.82V63.34h6v2.29h-23V63.34h6V3.67h-6Z"/><path class="cls-1" d="M156,33.5H144V63.34h20.19V55.08h2V65.63H126.76V63.34H133V3.67h-6.24V1.38h37.36V11.93h-2V3.67H144V31.21H156V26.62h2V38.09h-2Z"/><path class="cls-1" d="M236.64,65.63l-20.1-38.46V63.34h5v2.29H208.64V63.34h5v-62h3.12l24.69,48.19L263.07,1.38h3.12v62h6.43v2.29H248.75V63.34h6.43V26.07L237.65,65.63Z"/><path class="cls-1" d="M315.12,0,337,63.34h7.25v2.29H319.89V63.34H325L319.25,45.9H299.51l-5.6,17.44h8.17v2.29H283.73V63.34h7.43L311.26,0ZM300.25,43.6h18.27l-9.28-28Z"/><path class="cls-1" d="M355.32,1.38h29.29q7.61,0,12.3,4.5A13.77,13.77,0,0,1,400,10.51a15.27,15.27,0,0,1,1.19,6,17.15,17.15,0,0,1-2.89,9.69,14.8,14.8,0,0,1-8.31,6l15.24,31.12h6.15v2.29H387.54V63.34h5.33l-15-30h-5.14v30h6.43v2.29H355.32V63.34h6.43V3.67h-6.43Zm35.44,14.68a18,18,0,0,0-.92-4.95A11,11,0,0,0,387.45,7a9.64,9.64,0,0,0-3.39-2.44,13.41,13.41,0,0,0-5.24-.87h-6.06V31h5.05a13.87,13.87,0,0,0,6-1A11.18,11.18,0,0,0,387,27.72a13,13,0,0,0,2.85-5.28A22.84,22.84,0,0,0,390.76,16.06Z"/><path class="cls-1" d="M423.43,1.38H447.3V3.67h-6.43V63.34h6.43v2.29H423.43V63.34h6.43V3.67h-6.43Z"/><path class="cls-1" d="M501.36,1.38H514V3.67h-5.14v63.8h-3.3L469.05,21.75V63.34h5v2.29H461.16V63.34H466v-62h3l36.81,47.36V3.67h-4.5Z"/><path class="cls-1" d="M556.71,0l21.85,63.34h7.25v2.29H561.49V63.34h5.14L560.85,45.9H541.11l-5.6,17.44h8.17v2.29H525.32V63.34h7.44L552.86,0ZM541.85,43.6h18.26l-9.27-28Z"/><path class="cls-1" d="M189,98.66h7.57a8.3,8.3,0,0,1,2.84.45,5.79,5.79,0,0,1,2.06,1.24,5,5,0,0,1,1,1.63,5.51,5.51,0,0,1,.36,2v0a4.85,4.85,0,0,1-1.13,3.36,5.94,5.94,0,0,1-2.92,1.78l4.59,6.43h-3.52l-4.17-5.92H192v5.92h-3Zm7.35,8.39a3.93,3.93,0,0,0,2.55-.76,2.48,2.48,0,0,0,.94-2.05v0a2.46,2.46,0,0,0-.92-2.08,4.11,4.11,0,0,0-2.59-.71H192v5.65Z"/><path class="cls-1" d="M228.35,98.66h12.58v2.67h-9.6v4.41h8.51v2.67h-8.51V113h9.72v2.67h-12.7Z"/><path class="cls-1" d="M272.36,115.87a10.56,10.56,0,0,1-3.76-.67,10.14,10.14,0,0,1-3.32-2.07l1.79-2.13a10.62,10.62,0,0,0,2.5,1.64,6.86,6.86,0,0,0,2.86.57,3.74,3.74,0,0,0,2.19-.58,1.81,1.81,0,0,0,.82-1.55v0a2,2,0,0,0-.16-.81,1.78,1.78,0,0,0-.58-.67,4.71,4.71,0,0,0-1.17-.58,16.08,16.08,0,0,0-1.93-.53,25.17,25.17,0,0,1-2.41-.73,6.71,6.71,0,0,1-1.77-.95,3.72,3.72,0,0,1-1.09-1.4,4.73,4.73,0,0,1-.37-2v0a4.57,4.57,0,0,1,.43-2,4.66,4.66,0,0,1,1.2-1.55,5.75,5.75,0,0,1,1.83-1,7.25,7.25,0,0,1,2.33-.36,9.63,9.63,0,0,1,3.36.55,9.84,9.84,0,0,1,2.8,1.6l-1.6,2.26a10.58,10.58,0,0,0-2.3-1.3,6.24,6.24,0,0,0-2.31-.45,3.21,3.21,0,0,0-2,.58,1.77,1.77,0,0,0-.73,1.43v0a2,2,0,0,0,.17.86,1.65,1.65,0,0,0,.62.68,5.29,5.29,0,0,0,1.23.57c.53.17,1.19.36,2,.55a15.29,15.29,0,0,1,2.38.74,6.34,6.34,0,0,1,1.7,1,4,4,0,0,1,1,1.37,4.47,4.47,0,0,1,.35,1.84v0a4.86,4.86,0,0,1-.45,2.13,4.57,4.57,0,0,1-1.25,1.6,5.33,5.33,0,0,1-1.91,1A8.29,8.29,0,0,1,272.36,115.87Z"/><path class="cls-1" d="M311.86,115.92a9.08,9.08,0,0,1-3.59-.69,8.42,8.42,0,0,1-2.79-1.88,8.66,8.66,0,0,1-1.82-2.77,8.75,8.75,0,0,1-.65-3.39v0a8.75,8.75,0,0,1,.65-3.39A8.63,8.63,0,0,1,305.5,101a8.83,8.83,0,0,1,6.4-2.6,9.08,9.08,0,0,1,3.59.69,8.42,8.42,0,0,1,2.79,1.88,8.66,8.66,0,0,1,1.82,2.77,8.75,8.75,0,0,1,.65,3.39v.05a8.69,8.69,0,0,1-2.49,6.17,8.87,8.87,0,0,1-6.4,2.6Zm0-2.74a5.69,5.69,0,0,0,2.32-.47,5.59,5.59,0,0,0,1.81-1.29,5.84,5.84,0,0,0,1.17-1.9,6.43,6.43,0,0,0,.43-2.33v0a6.58,6.58,0,0,0-.43-2.35,5.76,5.76,0,0,0-1.19-1.91,5.9,5.9,0,0,0-1.83-1.3,5.9,5.9,0,0,0-4.64,0,5.48,5.48,0,0,0-1.81,1.29,5.84,5.84,0,0,0-1.17,1.9,6.22,6.22,0,0,0-.43,2.33v.05a6.35,6.35,0,0,0,.43,2.34,5.76,5.76,0,0,0,1.19,1.91,5.68,5.68,0,0,0,1.83,1.3A5.57,5.57,0,0,0,311.9,113.18Z"/><path class="cls-1" d="M346.19,98.66h7.57a8.24,8.24,0,0,1,2.83.45,5.7,5.7,0,0,1,2.06,1.24A5,5,0,0,1,359.7,102a5.51,5.51,0,0,1,.36,2v0a4.89,4.89,0,0,1-1.13,3.36A5.94,5.94,0,0,1,356,109.2l4.58,6.43h-3.51l-4.17-5.92h-3.74v5.92h-3Zm7.35,8.39a3.92,3.92,0,0,0,2.54-.76,2.49,2.49,0,0,0,.95-2.05v0a2.46,2.46,0,0,0-.92-2.08,4.14,4.14,0,0,0-2.6-.71h-4.34v5.65Z"/><path class="cls-1" d="M389.64,101.4h-5.38V98.66H398v2.74h-5.39v14.23h-3Z"/></g></g></svg>
