<svg xmlns="http://www.w3.org/2000/svg" viewBox="0 0 194.42 273.29"><defs><style>.cls-1{fill:#928257;}</style></defs><title>Asset 10</title><g id="Layer_2" data-name="Layer 2"><g id="Layer_1-2" data-name="Layer 1"><path class="cls-1" d="M30.25,241.88l-4.09,7.7L54.3,264.49l1.6-3L57,262l-6,11.26-1.08-.58,1.6-3-28.13-14.9-4.08,7.7,3.89,2.06-.5,1-5-2.64,11.93-22.51,5,2.64-.51.95Z"/><path class="cls-1" d="M32.44,235.11l5.74-10.82,1.08.58-1.49,2.81L51.4,234.9l5.05-9.52-13.64-7.22L41.32,221l-1.08-.57L46,209.62l1.08.57L45.57,213,73.7,227.87l1.47-2.77,1.08.58-5.71,10.77-1.08-.57L71,233.07,57.53,226l-5,9.52,13.41,7.11,1.49-2.81,1.09.57-5.74,10.82-1.08-.57,1.49-2.82L35,232.87l-1.5,2.82Z"/><path class="cls-1" d="M71.86,197.35l-3,5.62,14.06,7.46,5-9.52-3.9-2.07.51-1,5,2.64-9.87,18.61-1.08-.57,1.56-2.95L52.06,200.71l-1.56,2.95-1.09-.58,9.34-17.61,5,2.64-.51.95L59.33,187l-4.52,8.53,13,6.88,3-5.63-2.17-1.14.51-.95,5.41,2.86-.51,1Z"/><path class="cls-1" d="M107.17,167.33,84,167.2l17,9,1.24-2.34,1.08.57-3.21,6.06L99.09,180l1.24-2.34L71.11,162.14l.78-1.47,28.9.4L83.48,138.81l.78-1.47,29.21,15.48,1.61-3,1.08.57-6,11.26-1.09-.58,1.61-3L93.15,148.7l14.27,18.15Z"/><path class="cls-1" d="M95.83,113.92l35.33,5.53L133,116l1.08.57L128,128.07l-1.08-.57,1.28-2.43-9.66-1.63-4.94,9.31,6.83,7,2-3.85,1.08.57-4.59,8.66-1.08-.58,1.86-3.5L94.87,115.74Zm16.85,17.91,4.56-8.61-15.52-2.63Z"/><path class="cls-1" d="M106.53,95.31l7.31-13.81a9.07,9.07,0,0,1,5.2-4.67,7.33,7.33,0,0,1,3-.32,8.19,8.19,0,0,1,3.14.94A9.17,9.17,0,0,1,129,81.24a7.86,7.86,0,0,1,.76,5.41l18.48.59,1.54-2.9,1.08.58-6,11.25-1.09-.57,1.33-2.51-17.89-.45L126,95.07l14.15,7.5,1.61-3,1.08.57-6,11.26-1.09-.58,1.61-3L109.21,92.85l-1.6,3Zm15.78-13a9.51,9.51,0,0,0-2.57-.8,5.71,5.71,0,0,0-2.55.09,5,5,0,0,0-2,1,7.05,7.05,0,0,0-1.72,2.25L112,87.66l12.89,6.83,1.27-2.38a7.52,7.52,0,0,0,1-3,5.87,5.87,0,0,0-.3-2.1,6.89,6.89,0,0,0-1.78-2.66A12.11,12.11,0,0,0,122.31,82.27Z"/><path class="cls-1" d="M123.54,63.19l6-11.25,1.08.57-1.6,3,28.13,14.91,1.61-3,1.08.58-6,11.25-1.08-.58,1.61-3-28.14-14.9-1.6,3Z"/><path class="cls-1" d="M143,26.45l3.16-6,1.08.57L146,23.47l30.08,15.94L175.24,41l-30.69,5.8,19.61,10.39,1.24-2.33,1.08.57-3.21,6.06-1.08-.57,1.21-2.3L134.19,43.11l.75-1.43,31.54-5.52L145.22,24.9,144.1,27Z"/><path class="cls-1" d="M156.2,0l35.32,5.53,1.82-3.42,1.08.57-6.08,11.47-1.08-.57,1.28-2.43-9.67-1.63-4.93,9.31,6.83,7,2-3.86,1.08.58L179.3,31.2l-1.08-.57,1.86-3.51L155.24,1.82ZM173,17.91l4.57-8.62L162.09,6.67Z"/><path class="cls-1" d="M107.49,196.28l1.89-3.57a4.6,4.6,0,0,1,.92-1.23,3.26,3.26,0,0,1,1.1-.66,2.75,2.75,0,0,1,1-.08,3,3,0,0,1,1,.33h0a2.65,2.65,0,0,1,1.31,1.38,3.28,3.28,0,0,1,.11,1.82l4.17-.56-.88,1.66-3.83.49v0l-.92,1.74,2.79,1.48-.75,1.41Zm5.79-1.37a2.11,2.11,0,0,0,.28-1.39,1.3,1.3,0,0,0-.73-1l0,0a1.36,1.36,0,0,0-1.22-.08,2.24,2.24,0,0,0-1,1l-1.08,2,2.66,1.41Z"/><path class="cls-1" d="M117.32,177.72l3.15-5.94,1.26.67-2.4,4.53,2.08,1.1,2.12-4,1.26.66-2.13,4,2.15,1.14,2.43-4.59,1.26.67-3.17,6Z"/><path class="cls-1" d="M136.44,161.27a5.8,5.8,0,0,1-1.26,1.6,5.54,5.54,0,0,1-1.8,1l-.56-1.38a5.34,5.34,0,0,0,1.4-.77,3.81,3.81,0,0,0,1-1.2,2,2,0,0,0,.27-1.18,1,1,0,0,0-.52-.77h0a1,1,0,0,0-.42-.13.92.92,0,0,0-.46.1,2.54,2.54,0,0,0-.56.41c-.21.19-.45.45-.74.77a12.38,12.38,0,0,1-.94,1,3.48,3.48,0,0,1-.89.6,2,2,0,0,1-.93.16,2.44,2.44,0,0,1-1-.32h0a2.37,2.37,0,0,1-.83-.7,2.6,2.6,0,0,1-.43-1,2.94,2.94,0,0,1,0-1.11,3.72,3.72,0,0,1,.4-1.19,5.17,5.17,0,0,1,1.1-1.44,5.1,5.1,0,0,1,1.46-.92l.66,1.31a5.47,5.47,0,0,0-1.18.77,3.18,3.18,0,0,0-.79,1,1.64,1.64,0,0,0-.23,1.11,1,1,0,0,0,.49.7h0a1.1,1.1,0,0,0,.45.13.89.89,0,0,0,.47-.12,3.05,3.05,0,0,0,.58-.44,10.86,10.86,0,0,0,.76-.81,9.06,9.06,0,0,1,.94-.93,3.56,3.56,0,0,1,.91-.55,2.18,2.18,0,0,1,.9-.14,2.46,2.46,0,0,1,.95.29h0a2.64,2.64,0,0,1,.89.75,2.45,2.45,0,0,1,.44,1,3,3,0,0,1,0,1.15A4.54,4.54,0,0,1,136.44,161.27Z"/><path class="cls-1" d="M146.33,142.65a4.76,4.76,0,0,1-1.22,1.52,4.46,4.46,0,0,1-3.35,1,4.71,4.71,0,0,1-1.76-.53l0,0a4.67,4.67,0,0,1-2.29-2.71,5,5,0,0,1-.19-1.81,4.66,4.66,0,0,1,.57-1.86,4.77,4.77,0,0,1,1.22-1.53,4.65,4.65,0,0,1,1.58-.84,4.54,4.54,0,0,1,1.76-.16,4.66,4.66,0,0,1,1.76.53h0a4.77,4.77,0,0,1,1.43,1.16,4.57,4.57,0,0,1,.85,1.56,4.77,4.77,0,0,1,.2,1.81A4.71,4.71,0,0,1,146.33,142.65Zm-1.28-.7a3.06,3.06,0,0,0,.36-1.21,3.12,3.12,0,0,0-.16-1.18,3.27,3.27,0,0,0-.6-1,3.49,3.49,0,0,0-1-.78h0a3.29,3.29,0,0,0-1.21-.38,2.85,2.85,0,0,0-1.2.08,2.88,2.88,0,0,0-1.06.54,3,3,0,0,0-.81,1,3.06,3.06,0,0,0-.36,1.21,2.93,2.93,0,0,0,.15,1.18,3.3,3.3,0,0,0,.61,1,3.49,3.49,0,0,0,1,.78h0a3.35,3.35,0,0,0,1.21.38,3,3,0,0,0,1.2-.08,2.93,2.93,0,0,0,1.07-.54A3,3,0,0,0,145.05,142Z"/><path class="cls-1" d="M146.77,122.15l1.89-3.57a4.39,4.39,0,0,1,.92-1.22,2.89,2.89,0,0,1,1.1-.66,2.57,2.57,0,0,1,1-.09,2.87,2.87,0,0,1,1,.34h0a2.57,2.57,0,0,1,1.3,1.37,3.2,3.2,0,0,1,.12,1.82l4.17-.55-.88,1.66-3.83.49v0l-.92,1.74,2.79,1.48-.75,1.4Zm5.79-1.37a2.09,2.09,0,0,0,.28-1.39,1.33,1.33,0,0,0-.73-1h0a1.28,1.28,0,0,0-1.21-.08,2.26,2.26,0,0,0-1,1l-1.08,2.05,2.66,1.41Z"/><path class="cls-1" d="M158.92,102.35l-1.35,2.53-1.29-.68,3.44-6.48,1.29.68-1.35,2.54,6.72,3.56-.75,1.4Z"/><path class="cls-1" d="M66.75,88.32l-18.2,1.9,9.31-30.83-20.28,25L28.93,68.28l1.9,18.2L0,77.17,25,97.45,8.89,106.1l18.2-1.9L17.78,135l20.28-25,8.65,16.13-1.9-18.2,30.83,9.31L50.63,97ZM53.49,92.39l-5.12,2.75-1-.85L47.71,93ZM33,81.54l2.75,5.12-.85,1-1.29-.39ZM22.15,102l5.12-2.74,1.05.85-.39,1.29Zm20.49,10.86-2.75-5.12.85-1.05,1.29.39Zm3-16.51,17.74,14.39-21.87-6.61-1.72-.52L38.66,105,24.27,122.77l6.61-21.87.52-1.72L30,98.05,12.26,83.66l21.87,6.61,1.72.51L37,89.39,51.37,71.65,44.76,93.52l-.52,1.72Z"/><path class="cls-1" d="M5.32,84.92,3.11,83.13A37.46,37.46,0,0,0,17,128.34l.82-2.71A34.82,34.82,0,0,1,5.32,84.92Z"/><path class="cls-1" d="M70.32,109.49l2.21,1.79A37.46,37.46,0,0,0,58.64,66.07l-.82,2.72A34.81,34.81,0,0,1,70.32,109.49Z"/><path class="cls-1" d="M25.54,129.71l-1.79,2.21A37.48,37.48,0,0,0,69,118l-2.72-.82A34.81,34.81,0,0,1,25.54,129.71Z"/><path class="cls-1" d="M50.11,64.71l1.78-2.21A37.46,37.46,0,0,0,6.68,76.39l2.72.82A34.82,34.82,0,0,1,50.11,64.71Z"/><path class="cls-1" d="M33.09,94.7a5.35,5.35,0,1,0,7.24-2.22A5.36,5.36,0,0,0,33.09,94.7Zm7.09,3.76a2.67,2.67,0,1,1-1.11-3.61A2.67,2.67,0,0,1,40.18,98.46Z"/></g></g></svg>