<svg xmlns="http://www.w3.org/2000/svg" viewBox="0 0 196.29 71.55"><defs><style>.cls-1{opacity:0.88;}.cls-2{fill:#474747;}</style></defs><title>Asset 17</title><g id="Layer_2" data-name="Layer 2"><g id="Layer_1-2" data-name="Layer 1"><g class="cls-1"><path class="cls-2" d="M196.29,1.91a161.78,161.78,0,0,1-13.58,27.37c-5.54,8.6-11.92,16.81-19.75,23.65a73.61,73.61,0,0,1-27,15.53c-1.26.37-2.51.8-3.79,1.12l-3.86.78-1.94.39c-.65.09-1.3.14-2,.22l-3.92.42c-1.31.13-2.62.07-3.93.12s-2.63.08-3.94,0l-3.92-.29a31.63,31.63,0,0,1-3.9-.42,106.25,106.25,0,0,1-29.66-9.23l-6.9-3.51c-2.25-1.25-4.45-2.59-6.67-3.88S57.26,51.45,55.12,50s-4.29-2.82-6.3-4.4A278.75,278.75,0,0,1,4.2,3.93C19,17.82,34.43,31.08,51.06,42.43c8.41,5.51,17,10.83,26.1,14.86a104.05,104.05,0,0,0,28.36,8.57,28.24,28.24,0,0,0,3.67.42l3.67.3c1.22.08,2.45,0,3.67,0s2.46,0,3.68-.08l3.65-.37c.61-.06,1.22-.11,1.83-.19l1.8-.35,3.6-.69c1.18-.3,2.36-.66,3.54-1a64,64,0,0,0,6.94-2.41c1.15-.43,2.22-1,3.34-1.54s2.24-1,3.29-1.68l3.19-1.86a15.89,15.89,0,0,0,1.56-1l1.53-1,1.53-1a16.16,16.16,0,0,0,1.51-1.1l2.92-2.3c1-.73,1.89-1.61,2.83-2.43S165.14,45.9,166,45c1.74-1.79,3.57-3.49,5.2-5.39l2.52-2.8,2.37-2.92c1.63-1.91,3-4,4.57-6A205.74,205.74,0,0,0,196.29,1.91Z"/><path class="cls-2" d="M9.39,37.81c-1.11-2.84-2-5.72-2.92-8.6S4.79,23.43,4,20.53,2.57,14.7,1.9,11.78.63,5.92.05,3A2.49,2.49,0,0,1,2,.05a2.46,2.46,0,0,1,.81,0h0c3,.42,6.07.87,9.1,1.38s6,1,9.06,1.65,6,1.25,9,2,6,1.5,9,2.47c-3.12.14-6.2,0-9.29,0S23.53,7.17,20.47,7s-6.12-.53-9.17-.85S5.2,5.39,2.16,5L5,2C5.52,5,6.06,7.91,6.54,10.87s.94,5.93,1.33,8.91.73,6,1,9S9.36,34.76,9.39,37.81Z"/></g></g></g></svg>